# xmcd
#
# Track frame offsets: 
#        150
#        18967
#        28991
#        42891
#        59015
#        75780
#        90154
#        109144
#        118323
#        133564
#        148656
#        165068
#        183247
#        204939
#        221204
#        241937
#
# Disc length: 3542 seconds
#
# Revision: 0
# Processed by: cddbd v1.5.2PL0 Copyright (c) Steve Scherf et al.
# Submitted via: ExactAudioCopy v1.0b3
#
DISCID=cf0dd410
DTITLE=合辑 - 草原歌典-第七辑
DYEAR=2006
DGENRE=
TTITLE0=敖包相会
TTITLE1=忠实的心想念你
TTITLE2=那达慕的篝火
TTITLE3=婚宴歌
TTITLE4=阿尔斯楞的眼睛
TTITLE5=山丹花
TTITLE6=草原恋歌
TTITLE7=丁香姑娘
TTITLE8=傍晚的思念
TTITLE9=草原夜曲
TTITLE10=万丽
TTITLE11=草原月亮
TTITLE12=诺丽格尔玛
TTITLE13=三匹枣骝马
TTITLE14=草原夜色美
TTITLE15=诺恩吉雅
EXTD=
EXTT0=
EXTT1=
EXTT2=
EXTT3=
EXTT4=
EXTT5=
EXTT6=
EXTT7=
EXTT8=
EXTT9=
EXTT10=
EXTT11=
EXTT12=
EXTT13=
EXTT14=
EXTT15=
PLAYORDER=
